<mxfile host="drawio-plugin" modified="2022-01-26T17:24:49.875Z" agent="5.0 (X11; Linux x86_64) AppleWebKit/537.36 (KHTML, like Gecko) Chrome/89.0.4389.114 Safari/537.36" etag="1P_zEbNBTJc2zSzwwtkA" version="15.5.4" type="embed" pages="3"><diagram id="AqL_zVDdTrIdGX5T7YzC" name="Domain model"><mxGraphModel dx="409" dy="1112" grid="1" gridSize="10" guides="1" tooltips="1" connect="1" arrows="1" fold="1" page="1" pageScale="1" pageWidth="827" pageHeight="1169" math="0" shadow="0"><root><mxCell id="0"/><mxCell id="1" parent="0"/><mxCell id="5" value="Workout" style="swimlane;fontStyle=0;childLayout=stackLayout;horizontal=1;startSize=30;horizontalStack=0;resizeParent=1;resizeParentMax=0;resizeLast=0;collapsible=1;marginBottom=0;" parent="1" vertex="1"><mxGeometry x="10" y="210" width="140" height="330" as="geometry"/></mxCell><mxCell id="6" value="- name" style="text;strokeColor=none;fillColor=none;align=left;verticalAlign=middle;spacingLeft=4;spacingRight=4;overflow=hidden;points=[[0,0.5],[1,0.5]];portConstraint=eastwest;rotatable=0;" parent="5" vertex="1"><mxGeometry y="30" width="140" height="30" as="geometry"/></mxCell><mxCell id="7" value="- id" style="text;strokeColor=none;fillColor=none;align=left;verticalAlign=middle;spacingLeft=4;spacingRight=4;overflow=hidden;points=[[0,0.5],[1,0.5]];portConstraint=eastwest;rotatable=0;" parent="5" vertex="1"><mxGeometry y="60" width="140" height="30" as="geometry"/></mxCell><mxCell id="38" value="- work: List[Work]" style="text;strokeColor=none;fillColor=none;align=left;verticalAlign=middle;spacingLeft=4;spacingRight=4;overflow=hidden;points=[[0,0.5],[1,0.5]];portConstraint=eastwest;rotatable=0;" parent="5" vertex="1"><mxGeometry y="90" width="140" height="30" as="geometry"/></mxCell><mxCell id="QoM_Lg8xotSHzQ9uIrgs-62" value="- created_at&#10;" style="text;strokeColor=none;fillColor=none;align=left;verticalAlign=middle;spacingLeft=4;spacingRight=4;overflow=hidden;points=[[0,0.5],[1,0.5]];portConstraint=eastwest;rotatable=0;" parent="5" vertex="1"><mxGeometry y="120" width="140" height="30" as="geometry"/></mxCell><mxCell id="QoM_Lg8xotSHzQ9uIrgs-66" value="- finished_at&#10;" style="text;strokeColor=none;fillColor=none;align=left;verticalAlign=middle;spacingLeft=4;spacingRight=4;overflow=hidden;points=[[0,0.5],[1,0.5]];portConstraint=eastwest;rotatable=0;" parent="5" vertex="1"><mxGeometry y="150" width="140" height="30" as="geometry"/></mxCell><mxCell id="QoM_Lg8xotSHzQ9uIrgs-56" value="+ addExercise()" style="text;strokeColor=none;fillColor=none;align=left;verticalAlign=middle;spacingLeft=4;spacingRight=4;overflow=hidden;points=[[0,0.5],[1,0.5]];portConstraint=eastwest;rotatable=0;" parent="5" vertex="1"><mxGeometry y="180" width="140" height="30" as="geometry"/></mxCell><mxCell id="QoM_Lg8xotSHzQ9uIrgs-57" value="" style="endArrow=none;html=1;exitX=0.029;exitY=-0.13;exitDx=0;exitDy=0;exitPerimeter=0;entryX=0.939;entryY=-0.095;entryDx=0;entryDy=0;entryPerimeter=0;" parent="5" source="QoM_Lg8xotSHzQ9uIrgs-56" target="QoM_Lg8xotSHzQ9uIrgs-56" edge="1"><mxGeometry width="50" height="50" relative="1" as="geometry"><mxPoint x="650" y="250" as="sourcePoint"/><mxPoint x="700" y="200" as="targetPoint"/></mxGeometry></mxCell><mxCell id="QoM_Lg8xotSHzQ9uIrgs-58" value="+ removeExercise()" style="text;strokeColor=none;fillColor=none;align=left;verticalAlign=middle;spacingLeft=4;spacingRight=4;overflow=hidden;points=[[0,0.5],[1,0.5]];portConstraint=eastwest;rotatable=0;" parent="5" vertex="1"><mxGeometry y="210" width="140" height="30" as="geometry"/></mxCell><mxCell id="QoM_Lg8xotSHzQ9uIrgs-69" value="+ replaceExercise()" style="text;strokeColor=none;fillColor=none;align=left;verticalAlign=middle;spacingLeft=4;spacingRight=4;overflow=hidden;points=[[0,0.5],[1,0.5]];portConstraint=eastwest;rotatable=0;" parent="5" vertex="1"><mxGeometry y="240" width="140" height="30" as="geometry"/></mxCell><mxCell id="QoM_Lg8xotSHzQ9uIrgs-59" value="+ start()" style="text;strokeColor=none;fillColor=none;align=left;verticalAlign=middle;spacingLeft=4;spacingRight=4;overflow=hidden;points=[[0,0.5],[1,0.5]];portConstraint=eastwest;rotatable=0;" parent="5" vertex="1"><mxGeometry y="270" width="140" height="30" as="geometry"/></mxCell><mxCell id="QoM_Lg8xotSHzQ9uIrgs-60" value="+ finish()" style="text;strokeColor=none;fillColor=none;align=left;verticalAlign=middle;spacingLeft=4;spacingRight=4;overflow=hidden;points=[[0,0.5],[1,0.5]];portConstraint=eastwest;rotatable=0;" parent="5" vertex="1"><mxGeometry y="300" width="140" height="30" as="geometry"/></mxCell><mxCell id="23" value="Has-a&lt;br&gt;" style="endArrow=classic;html=1;exitX=1.014;exitY=0.25;exitDx=0;exitDy=0;entryX=-0.007;entryY=0.867;entryDx=0;entryDy=0;entryPerimeter=0;exitPerimeter=0;" parent="1" source="40" target="27" edge="1"><mxGeometry relative="1" as="geometry"><mxPoint x="280" y="470" as="sourcePoint"/><mxPoint x="420" y="335" as="targetPoint"/><Array as="points"><mxPoint x="390" y="363"/><mxPoint x="390" y="346"/></Array></mxGeometry></mxCell><mxCell id="33" value="" style="edgeStyle=none;html=1;exitX=1;exitY=0.5;exitDx=0;exitDy=0;" parent="1" source="27" target="29" edge="1"><mxGeometry relative="1" as="geometry"><Array as="points"><mxPoint x="730" y="335"/><mxPoint x="730" y="260"/><mxPoint x="625" y="260"/></Array></mxGeometry></mxCell><mxCell id="25" value="Exercise" style="swimlane;fontStyle=0;childLayout=stackLayout;horizontal=1;startSize=30;horizontalStack=0;resizeParent=1;resizeParentMax=0;resizeLast=0;collapsible=1;marginBottom=0;" parent="1" vertex="1"><mxGeometry x="460" y="290" width="190" height="150" as="geometry"/></mxCell><mxCell id="27" value="- type: ExerciseType" style="text;strokeColor=none;fillColor=none;align=left;verticalAlign=middle;spacingLeft=4;spacingRight=4;overflow=hidden;points=[[0,0.5],[1,0.5]];portConstraint=eastwest;rotatable=0;" parent="25" vertex="1"><mxGeometry y="30" width="190" height="30" as="geometry"/></mxCell><mxCell id="52" value="- default_rest_time" style="text;strokeColor=none;fillColor=none;align=left;verticalAlign=middle;spacingLeft=4;spacingRight=4;overflow=hidden;points=[[0,0.5],[1,0.5]];portConstraint=eastwest;rotatable=0;" parent="25" vertex="1"><mxGeometry y="60" width="190" height="30" as="geometry"/></mxCell><mxCell id="54" value="- default_work_time_band_start" style="text;strokeColor=none;fillColor=none;align=left;verticalAlign=middle;spacingLeft=4;spacingRight=4;overflow=hidden;points=[[0,0.5],[1,0.5]];portConstraint=eastwest;rotatable=0;" parent="25" vertex="1"><mxGeometry y="90" width="190" height="30" as="geometry"/></mxCell><mxCell id="4USTRarLNu-uJ8CaDeED-55" value="- default_work_time_band_finish" style="text;strokeColor=none;fillColor=none;align=left;verticalAlign=middle;spacingLeft=4;spacingRight=4;overflow=hidden;points=[[0,0.5],[1,0.5]];portConstraint=eastwest;rotatable=0;" parent="25" vertex="1"><mxGeometry y="120" width="190" height="30" as="geometry"/></mxCell><mxCell id="29" value="&lt;&lt; enumeration &gt;&gt;&#10;ExerciseType" style="swimlane;fontStyle=0;childLayout=stackLayout;horizontal=1;startSize=30;horizontalStack=0;resizeParent=1;resizeParentMax=0;resizeLast=0;collapsible=1;marginBottom=0;" parent="1" vertex="1"><mxGeometry x="530" y="70" width="190" height="150" as="geometry"><mxRectangle x="405" y="70" width="130" height="30" as="alternateBounds"/></mxGeometry></mxCell><mxCell id="30" value="Machine" style="text;strokeColor=none;fillColor=none;align=left;verticalAlign=middle;spacingLeft=4;spacingRight=4;overflow=hidden;points=[[0,0.5],[1,0.5]];portConstraint=eastwest;rotatable=0;" parent="29" vertex="1"><mxGeometry y="30" width="190" height="30" as="geometry"/></mxCell><mxCell id="31" value="Dumbell" style="text;strokeColor=none;fillColor=none;align=left;verticalAlign=middle;spacingLeft=4;spacingRight=4;overflow=hidden;points=[[0,0.5],[1,0.5]];portConstraint=eastwest;rotatable=0;" parent="29" vertex="1"><mxGeometry y="60" width="190" height="30" as="geometry"/></mxCell><mxCell id="32" value="Barbell" style="text;strokeColor=none;fillColor=none;align=left;verticalAlign=middle;spacingLeft=4;spacingRight=4;overflow=hidden;points=[[0,0.5],[1,0.5]];portConstraint=eastwest;rotatable=0;" parent="29" vertex="1"><mxGeometry y="90" width="190" height="30" as="geometry"/></mxCell><mxCell id="35" value="Bodyweight (assisted / weighted)" style="text;strokeColor=none;fillColor=none;align=left;verticalAlign=middle;spacingLeft=4;spacingRight=4;overflow=hidden;points=[[0,0.5],[1,0.5]];portConstraint=eastwest;rotatable=0;" parent="29" vertex="1"><mxGeometry y="120" width="190" height="30" as="geometry"/></mxCell><mxCell id="39" value="Work" style="swimlane;fontStyle=0;childLayout=stackLayout;horizontal=1;startSize=25;horizontalStack=0;resizeParent=1;resizeParentMax=0;resizeLast=0;collapsible=1;marginBottom=0;" parent="1" vertex="1"><mxGeometry x="220" y="300" width="140" height="235" as="geometry"/></mxCell><mxCell id="MYFmCosQHw6kbkyI4ROY-57" value="- id" style="text;strokeColor=none;fillColor=none;align=left;verticalAlign=middle;spacingLeft=4;spacingRight=4;overflow=hidden;points=[[0,0.5],[1,0.5]];portConstraint=eastwest;rotatable=0;" parent="39" vertex="1"><mxGeometry y="25" width="140" height="30" as="geometry"/></mxCell><mxCell id="40" value="- exercise: Exercise&#10;" style="text;strokeColor=none;fillColor=none;align=left;verticalAlign=middle;spacingLeft=4;spacingRight=4;overflow=hidden;points=[[0,0.5],[1,0.5]];portConstraint=eastwest;rotatable=0;" parent="39" vertex="1"><mxGeometry y="55" width="140" height="30" as="geometry"/></mxCell><mxCell id="41" value="- sets: List[Set]&#10;" style="text;strokeColor=none;fillColor=none;align=left;verticalAlign=middle;spacingLeft=4;spacingRight=4;overflow=hidden;points=[[0,0.5],[1,0.5]];portConstraint=eastwest;rotatable=0;" parent="39" vertex="1"><mxGeometry y="85" width="140" height="30" as="geometry"/></mxCell><mxCell id="QoM_Lg8xotSHzQ9uIrgs-68" value="+ changeRestTime()" style="text;strokeColor=none;fillColor=none;align=left;verticalAlign=middle;spacingLeft=4;spacingRight=4;overflow=hidden;points=[[0,0.5],[1,0.5]];portConstraint=eastwest;rotatable=0;" parent="39" vertex="1"><mxGeometry y="115" width="140" height="30" as="geometry"/></mxCell><mxCell id="QoM_Lg8xotSHzQ9uIrgs-70" value="" style="endArrow=none;html=1;exitX=0.011;exitY=-0.104;exitDx=0;exitDy=0;exitPerimeter=0;entryX=0.988;entryY=-0.139;entryDx=0;entryDy=0;entryPerimeter=0;" parent="39" source="QoM_Lg8xotSHzQ9uIrgs-68" target="QoM_Lg8xotSHzQ9uIrgs-68" edge="1"><mxGeometry width="50" height="50" relative="1" as="geometry"><mxPoint x="390" y="140" as="sourcePoint"/><mxPoint x="440" y="90" as="targetPoint"/></mxGeometry></mxCell><mxCell id="QoM_Lg8xotSHzQ9uIrgs-71" value="+ changeWorkTime" style="text;strokeColor=none;fillColor=none;align=left;verticalAlign=middle;spacingLeft=4;spacingRight=4;overflow=hidden;points=[[0,0.5],[1,0.5]];portConstraint=eastwest;rotatable=0;" parent="39" vertex="1"><mxGeometry y="145" width="140" height="30" as="geometry"/></mxCell><mxCell id="55" value="+ addSet()" style="text;strokeColor=none;fillColor=none;align=left;verticalAlign=middle;spacingLeft=4;spacingRight=4;overflow=hidden;points=[[0,0.5],[1,0.5]];portConstraint=eastwest;rotatable=0;" parent="39" vertex="1"><mxGeometry y="175" width="140" height="30" as="geometry"/></mxCell><mxCell id="56" value="- removeSet()" style="text;strokeColor=none;fillColor=none;align=left;verticalAlign=middle;spacingLeft=4;spacingRight=4;overflow=hidden;points=[[0,0.5],[1,0.5]];portConstraint=eastwest;rotatable=0;" parent="39" vertex="1"><mxGeometry y="205" width="140" height="30" as="geometry"/></mxCell><mxCell id="46" value="Has-a&lt;br&gt;" style="endArrow=classic;html=1;exitX=1;exitY=0.5;exitDx=0;exitDy=0;entryX=-0.029;entryY=0.147;entryDx=0;entryDy=0;entryPerimeter=0;" parent="1" source="38" target="39" edge="1"><mxGeometry relative="1" as="geometry"><mxPoint x="480" y="422.5" as="sourcePoint"/><mxPoint x="565" y="445.01" as="targetPoint"/><Array as="points"/></mxGeometry></mxCell><mxCell id="48" value="Set" style="swimlane;fontStyle=0;childLayout=stackLayout;horizontal=1;startSize=30;horizontalStack=0;resizeParent=1;resizeParentMax=0;resizeLast=0;collapsible=1;marginBottom=0;" parent="1" vertex="1"><mxGeometry x="460" y="550" width="140" height="240" as="geometry"/></mxCell><mxCell id="MYFmCosQHw6kbkyI4ROY-58" value="- id" style="text;strokeColor=none;fillColor=none;align=left;verticalAlign=middle;spacingLeft=4;spacingRight=4;overflow=hidden;points=[[0,0.5],[1,0.5]];portConstraint=eastwest;rotatable=0;" parent="48" vertex="1"><mxGeometry y="30" width="140" height="30" as="geometry"/></mxCell><mxCell id="49" value="- number_reps" style="text;strokeColor=none;fillColor=none;align=left;verticalAlign=middle;spacingLeft=4;spacingRight=4;overflow=hidden;points=[[0,0.5],[1,0.5]];portConstraint=eastwest;rotatable=0;" parent="48" vertex="1"><mxGeometry y="60" width="140" height="30" as="geometry"/></mxCell><mxCell id="50" value="- weight" style="text;strokeColor=none;fillColor=none;align=left;verticalAlign=middle;spacingLeft=4;spacingRight=4;overflow=hidden;points=[[0,0.5],[1,0.5]];portConstraint=eastwest;rotatable=0;" parent="48" vertex="1"><mxGeometry y="90" width="140" height="30" as="geometry"/></mxCell><mxCell id="51" value="- work time" style="text;strokeColor=none;fillColor=none;align=left;verticalAlign=middle;spacingLeft=4;spacingRight=4;overflow=hidden;points=[[0,0.5],[1,0.5]];portConstraint=eastwest;rotatable=0;" parent="48" vertex="1"><mxGeometry y="120" width="140" height="30" as="geometry"/></mxCell><mxCell id="QoM_Lg8xotSHzQ9uIrgs-54" value="+ isFinished()" style="text;strokeColor=none;fillColor=none;align=left;verticalAlign=middle;spacingLeft=4;spacingRight=4;overflow=hidden;points=[[0,0.5],[1,0.5]];portConstraint=eastwest;rotatable=0;" parent="48" vertex="1"><mxGeometry y="150" width="140" height="30" as="geometry"/></mxCell><mxCell id="QoM_Lg8xotSHzQ9uIrgs-55" value="" style="endArrow=none;html=1;exitX=-0.016;exitY=0.028;exitDx=0;exitDy=0;exitPerimeter=0;entryX=1.007;entryY=-0.077;entryDx=0;entryDy=0;entryPerimeter=0;" parent="48" source="QoM_Lg8xotSHzQ9uIrgs-54" target="QoM_Lg8xotSHzQ9uIrgs-54" edge="1"><mxGeometry width="50" height="50" relative="1" as="geometry"><mxPoint x="270" y="-100" as="sourcePoint"/><mxPoint x="320" y="-150" as="targetPoint"/></mxGeometry></mxCell><mxCell id="57" value="+ changeWeight()" style="text;strokeColor=none;fillColor=none;align=left;verticalAlign=middle;spacingLeft=4;spacingRight=4;overflow=hidden;points=[[0,0.5],[1,0.5]];portConstraint=eastwest;rotatable=0;" parent="48" vertex="1"><mxGeometry y="180" width="140" height="30" as="geometry"/></mxCell><mxCell id="58" value="+ changeNumberReps()" style="text;strokeColor=none;fillColor=none;align=left;verticalAlign=middle;spacingLeft=4;spacingRight=4;overflow=hidden;points=[[0,0.5],[1,0.5]];portConstraint=eastwest;rotatable=0;" parent="48" vertex="1"><mxGeometry y="210" width="140" height="30" as="geometry"/></mxCell><mxCell id="53" value="Has-a&lt;br&gt;" style="endArrow=classic;html=1;exitX=1;exitY=0.3;exitDx=0;exitDy=0;entryX=-0.029;entryY=0.15;entryDx=0;entryDy=0;entryPerimeter=0;exitPerimeter=0;" parent="1" source="41" target="48" edge="1"><mxGeometry relative="1" as="geometry"><mxPoint x="441.96000000000004" y="422.5" as="sourcePoint"/><mxPoint x="569.02" y="426.01" as="targetPoint"/><Array as="points"><mxPoint x="420" y="394"/><mxPoint x="420" y="582"/></Array></mxGeometry></mxCell></root></mxGraphModel></diagram><diagram id="mG0GwnJjSt0KNphOyig-" name="Activity diagram"><mxGraphModel dx="409" dy="1112" grid="1" gridSize="10" guides="1" tooltips="1" connect="1" arrows="1" fold="1" page="1" pageScale="1" pageWidth="827" pageHeight="1169" math="0" shadow="0"><root><mxCell id="hSunOYbw9DqjF8KloGCY-0"/><mxCell id="hSunOYbw9DqjF8KloGCY-1" parent="hSunOYbw9DqjF8KloGCY-0"/><mxCell id="hSunOYbw9DqjF8KloGCY-5" value="" style="edgeStyle=none;html=1;" parent="hSunOYbw9DqjF8KloGCY-1" source="hSunOYbw9DqjF8KloGCY-2" target="hSunOYbw9DqjF8KloGCY-4" edge="1"><mxGeometry relative="1" as="geometry"/></mxCell><mxCell id="hSunOYbw9DqjF8KloGCY-2" value="Gym Rat" style="shape=umlActor;verticalLabelPosition=bottom;verticalAlign=top;html=1;outlineConnect=0;" parent="hSunOYbw9DqjF8KloGCY-1" vertex="1"><mxGeometry x="80" y="80" width="59" height="120" as="geometry"/></mxCell><mxCell id="hSunOYbw9DqjF8KloGCY-7" value="" style="edgeStyle=none;html=1;" parent="hSunOYbw9DqjF8KloGCY-1" source="hSunOYbw9DqjF8KloGCY-4" target="hSunOYbw9DqjF8KloGCY-6" edge="1"><mxGeometry relative="1" as="geometry"/></mxCell><mxCell id="hSunOYbw9DqjF8KloGCY-10" value="" style="edgeStyle=none;html=1;" parent="hSunOYbw9DqjF8KloGCY-1" source="hSunOYbw9DqjF8KloGCY-4" target="hSunOYbw9DqjF8KloGCY-6" edge="1"><mxGeometry relative="1" as="geometry"/></mxCell><mxCell id="hSunOYbw9DqjF8KloGCY-12" value="" style="edgeStyle=none;html=1;" parent="hSunOYbw9DqjF8KloGCY-1" source="hSunOYbw9DqjF8KloGCY-4" target="hSunOYbw9DqjF8KloGCY-11" edge="1"><mxGeometry relative="1" as="geometry"/></mxCell><mxCell id="hSunOYbw9DqjF8KloGCY-4" value="Start new&amp;nbsp;&lt;br&gt;workout" style="ellipse;whiteSpace=wrap;html=1;verticalAlign=top;" parent="hSunOYbw9DqjF8KloGCY-1" vertex="1"><mxGeometry x="250" y="110" width="120" height="60" as="geometry"/></mxCell><mxCell id="hSunOYbw9DqjF8KloGCY-9" value="" style="edgeStyle=none;html=1;" parent="hSunOYbw9DqjF8KloGCY-1" source="hSunOYbw9DqjF8KloGCY-6" target="hSunOYbw9DqjF8KloGCY-4" edge="1"><mxGeometry relative="1" as="geometry"><mxPoint x="510" y="250" as="targetPoint"/></mxGeometry></mxCell><mxCell id="hSunOYbw9DqjF8KloGCY-20" value="" style="edgeStyle=none;html=1;" parent="hSunOYbw9DqjF8KloGCY-1" source="hSunOYbw9DqjF8KloGCY-6" target="hSunOYbw9DqjF8KloGCY-19" edge="1"><mxGeometry relative="1" as="geometry"/></mxCell><mxCell id="hSunOYbw9DqjF8KloGCY-6" value="&lt;br&gt;Add an exercise" style="ellipse;whiteSpace=wrap;html=1;verticalAlign=top;" parent="hSunOYbw9DqjF8KloGCY-1" vertex="1"><mxGeometry x="450" y="110" width="120" height="60" as="geometry"/></mxCell><mxCell id="hSunOYbw9DqjF8KloGCY-14" value="" style="edgeStyle=none;html=1;" parent="hSunOYbw9DqjF8KloGCY-1" source="hSunOYbw9DqjF8KloGCY-11" target="hSunOYbw9DqjF8KloGCY-13" edge="1"><mxGeometry relative="1" as="geometry"/></mxCell><mxCell id="hSunOYbw9DqjF8KloGCY-11" value="&lt;br&gt;Start timer" style="ellipse;whiteSpace=wrap;html=1;verticalAlign=top;" parent="hSunOYbw9DqjF8KloGCY-1" vertex="1"><mxGeometry x="250" y="250" width="120" height="60" as="geometry"/></mxCell><mxCell id="hSunOYbw9DqjF8KloGCY-18" value="" style="edgeStyle=none;html=1;" parent="hSunOYbw9DqjF8KloGCY-1" source="hSunOYbw9DqjF8KloGCY-13" target="hSunOYbw9DqjF8KloGCY-17" edge="1"><mxGeometry relative="1" as="geometry"/></mxCell><mxCell id="cuV9WxewAuLiByKb2erg-2" value="" style="edgeStyle=none;html=1;" parent="hSunOYbw9DqjF8KloGCY-1" source="hSunOYbw9DqjF8KloGCY-13" target="cuV9WxewAuLiByKb2erg-1" edge="1"><mxGeometry relative="1" as="geometry"/></mxCell><mxCell id="hSunOYbw9DqjF8KloGCY-13" value="&lt;br&gt;Hits finished set" style="ellipse;whiteSpace=wrap;html=1;verticalAlign=top;" parent="hSunOYbw9DqjF8KloGCY-1" vertex="1"><mxGeometry x="250" y="390" width="120" height="60" as="geometry"/></mxCell><mxCell id="hSunOYbw9DqjF8KloGCY-15" value="Performs exercise" style="text;html=1;align=center;verticalAlign=middle;resizable=0;points=[];autosize=1;strokeColor=none;fillColor=none;" parent="hSunOYbw9DqjF8KloGCY-1" vertex="1"><mxGeometry x="255" y="340" width="110" height="20" as="geometry"/></mxCell><mxCell id="hSunOYbw9DqjF8KloGCY-16" value="" style="endArrow=classic;startArrow=classic;html=1;exitX=1;exitY=0.5;exitDx=0;exitDy=0;" parent="hSunOYbw9DqjF8KloGCY-1" source="hSunOYbw9DqjF8KloGCY-13" target="hSunOYbw9DqjF8KloGCY-17" edge="1"><mxGeometry width="50" height="50" relative="1" as="geometry"><mxPoint x="380" y="500" as="sourcePoint"/><mxPoint x="430" y="450" as="targetPoint"/></mxGeometry></mxCell><mxCell id="hSunOYbw9DqjF8KloGCY-17" value="Records set working&lt;br&gt;time &amp;amp; number reps" style="ellipse;whiteSpace=wrap;html=1;" parent="hSunOYbw9DqjF8KloGCY-1" vertex="1"><mxGeometry x="460" y="380" width="120" height="80" as="geometry"/></mxCell><mxCell id="hSunOYbw9DqjF8KloGCY-19" value="Select:&lt;br&gt;Exercise&lt;br&gt;Number of sets&lt;br&gt;Number of reps per set&lt;br&gt;Target work time band&lt;br&gt;" style="whiteSpace=wrap;html=1;aspect=fixed;" parent="hSunOYbw9DqjF8KloGCY-1" vertex="1"><mxGeometry x="630" y="70" width="140" height="140" as="geometry"/></mxCell><mxCell id="cuV9WxewAuLiByKb2erg-0" value="" style="curved=1;endArrow=classic;html=1;exitX=0;exitY=1;exitDx=0;exitDy=0;" parent="hSunOYbw9DqjF8KloGCY-1" source="hSunOYbw9DqjF8KloGCY-13" edge="1"><mxGeometry width="50" height="50" relative="1" as="geometry"><mxPoint x="200" y="470" as="sourcePoint"/><mxPoint x="250" y="420" as="targetPoint"/><Array as="points"><mxPoint x="250" y="470"/><mxPoint x="220" y="470"/><mxPoint x="210" y="450"/><mxPoint x="200" y="420"/></Array></mxGeometry></mxCell><mxCell id="cuV9WxewAuLiByKb2erg-1" value="&lt;br&gt;End workout&lt;br&gt;" style="ellipse;whiteSpace=wrap;html=1;verticalAlign=top;" parent="hSunOYbw9DqjF8KloGCY-1" vertex="1"><mxGeometry x="250" y="530" width="120" height="60" as="geometry"/></mxCell></root></mxGraphModel></diagram><diagram id="wa52J_QwIktPxyiSVg9E" name="Components"><mxGraphModel dx="334" dy="1111" grid="1" gridSize="10" guides="1" tooltips="1" connect="1" arrows="1" fold="1" page="1" pageScale="1" pageWidth="827" pageHeight="1169" math="0" shadow="0"><root><mxCell id="uZ_1bXFi5JIHvSTcXBQH-0"/><mxCell id="uZ_1bXFi5JIHvSTcXBQH-1" parent="uZ_1bXFi5JIHvSTcXBQH-0"/><mxCell id="uZ_1bXFi5JIHvSTcXBQH-2" value="App" style="rounded=0;whiteSpace=wrap;html=1;" parent="uZ_1bXFi5JIHvSTcXBQH-1" vertex="1"><mxGeometry x="260" y="180" width="120" height="60" as="geometry"/></mxCell></root></mxGraphModel></diagram></mxfile>